<?xml version="1.0" encoding="utf-8"?>
<svg id="master-artboard" version="1.1" x="0px" style="enable-background:new 0 0 336 235.2;" height="330.16754150390625px" xmlns="http://www.w3.org/2000/svg" viewBox="0 0 637.1651000976562 330.16754150390625" width="637.1651000976562px" xmlns:xlink="http://www.w3.org/1999/xlink"><rect id="ee-background" x="0" y="0" width="637.1651000976562" height="330.16754150390625" style="fill: white; fill-opacity: 0; pointer-events: none;"/>
  <metadata id="metadata658290">
    
  </metadata>
  
  <linearGradient spreadMethod="pad" y2="30%" x2="-10%" y1="120%" x1="30%" id="3d_gradient2-logo-3e87f7dc-7fc5-477d-983c-d800d77cb9cc">
    <stop id="stop658265" stop-opacity="1" stop-color="#ffffff" offset="0%"/>
    <stop id="stop658267" stop-opacity="1" stop-color="#000000" offset="100%"/>
  </linearGradient>
  <linearGradient gradientTransform="rotate(-30)" spreadMethod="pad" y2="30%" x2="-10%" y1="120%" x1="30%" id="3d_gradient3-logo-3e87f7dc-7fc5-477d-983c-d800d77cb9cc">
    <stop id="stop658270" stop-opacity="1" stop-color="#ffffff" offset="0%"/>
    <stop id="stop658272" stop-opacity="1" stop-color="#cccccc" offset="50%"/>
    <stop id="stop658274" stop-opacity="1" stop-color="#000000" offset="100%"/>
  </linearGradient>
  <image id="container" x="272" y="144" width="480" height="480" transform="matrix(1, 0, 0, 1, -195.28321838378906, -218.9162139892578)" style="display: none;" xlink:href=""/><image id="icon_container" x="0" y="0" style="display: none;" transform="matrix(1, 0, 0, 1, -195.28321838378906, -218.9162139892578)" xlink:href=""/><path id="path658292" style="font-style:normal;font-weight:500;font-size:32px;line-height:1;font-family:'Raleway Medium Alt1';font-variant-ligatures:none;text-align:center;text-anchor:middle" d="m 501.96825,-19.616 -1.248,3.392 2.88,7.328 h -5.696 l -0.864,2.24 h 7.2 l 2.688,6.656 h 3.072 z m -1.248,-3.104 h -2.432 L 488.97625,0 h 2.944 l 7.584,-19.392 z" stroke-width="0" stroke-linejoin="miter" stroke-miterlimit="2" fill="#631d16" stroke="#631d16" transform="matrix(1.8199999332427979, 0, 0, 1.8199999332427979, -614.3197479248047, 317.97996520996094)"/><path id="path658294" style="font-style:normal;font-weight:500;font-size:32px;line-height:1;font-family:'Raleway Medium Alt1';font-variant-ligatures:none;text-align:center;text-anchor:middle" d="m 528.50875,4.064 h 2.816 v -5.408 h 2.816 v -2.56 h -2.816 v -14.368 h -1.92 l -11.168,14.432 v 2.496 h 10.272 z m -7.36,-7.968 7.648,-10.016 v 10.016 z" stroke-width="0" stroke-linejoin="miter" stroke-miterlimit="2" fill="#631d16" stroke="#631d16" transform="matrix(1.8199999332427979, 0, 0, 1.8199999332427979, -614.3197479248047, 317.97996520996094)"/><path id="path658297" style="font-style:normal;font-weight:500;font-size:72px;line-height:1;font-family:'Raleway Medium Alt1';font-variant-ligatures:none;text-align:center;text-anchor:middle" d="M 343.95594,-5.76 V 0 h 34.992 v -5.76 z m 6.48,-45.36 h -6.48 v 38.88 h 6.48 z" stroke-width="0" stroke-linejoin="miter" stroke-miterlimit="2" fill="#631d16" stroke="#631d16" transform="matrix(1.8199999332427979, 0, 0, 1.8199999332427979, -619.9890289306641, 265.8295440673828)"/><path id="path658299" style="font-style:normal;font-weight:500;font-size:72px;line-height:1;font-family:'Raleway Medium Alt1';font-variant-ligatures:none;text-align:center;text-anchor:middle" d="m 409.83481,-44.136 -2.808,7.632 6.48,16.488 h -12.816 l -1.944,5.04 h 16.2 L 420.99481,0 h 6.912 z m -2.808,-6.984 h -5.472 L 380.60281,0 h 6.624 l 17.064,-43.632 z" stroke-width="0" stroke-linejoin="miter" stroke-miterlimit="2" fill="#631d16" stroke="#631d16" transform="matrix(1.8199999332427979, 0, 0, 1.8199999332427979, -619.9890899658203, 265.8295440673828)"/><path id="path658301" style="font-style:normal;font-weight:500;font-size:72px;line-height:1;font-family:'Raleway Medium Alt1';font-variant-ligatures:none;text-align:center;text-anchor:middle" d="M 434.79969,-51.12 V 0 h 6.48 v -39.528 l 11.448,20.448 3.456,-5.904 -14.544,-26.136 z m 43.92,0 -18.576,33.192 -3.384,5.904 1.584,2.808 h 3.672 l 16.992,-30.312 V 0 h 6.48 v -51.12 z" stroke-width="0" stroke-linejoin="miter" stroke-miterlimit="2" fill="#631d16" stroke="#631d16" transform="matrix(1.8199999332427979, 0, 0, 1.8199999332427979, -619.9891204833984, 265.8295440673828)"/><path id="path658303" style="font-style:normal;font-weight:500;font-size:72px;line-height:1;font-family:'Raleway Medium Alt1';font-variant-ligatures:none;text-align:center;text-anchor:middle" d="m 534.30706,-21.384 c -1.728,-2.304 -4.032,-3.96 -6.912,-4.824 2.304,-1.008 4.104,-2.664 5.4,-4.824 1.296,-2.088 1.944,-4.464 1.944,-7.056 0,-1.584 -0.288,-3.096 -0.864,-4.68 -0.576,-1.584 -1.368,-2.952 -2.304,-4.176 -1.008,-1.224 -2.232,-2.232 -3.672,-3.024 -1.44,-0.72 -3.096,-1.152 -4.824,-1.152 h -25.416 v 39.6 h 6.48 v -33.984 h 16.704 c 1.008,0 2.016,0.216 2.952,0.648 0.936,0.504 1.728,1.08 2.376,1.8 0.648,0.792 1.152,1.728 1.584,2.736 0.36,1.08 0.576,2.232 0.576,3.384 0,1.224 -0.216,2.304 -0.648,3.312 -0.432,1.008 -0.936,1.944 -1.656,2.664 -0.72,0.792 -1.512,1.44 -2.448,1.872 -1.008,0.432 -2.088,0.648 -3.168,0.648 h -9.792 v 5.256 h 11.808 c 1.152,0 2.16,0.288 3.168,0.72 0.936,0.504 1.728,1.152 2.448,1.944 0.72,0.864 1.224,1.8 1.656,2.88 0.432,1.08 0.648,2.16 0.648,3.312 0,1.152 -0.216,2.304 -0.648,3.312 -0.504,1.08 -1.08,2.016 -1.8,2.808 -0.792,0.792 -1.728,1.44 -2.664,1.872 -1.008,0.504 -2.16,0.72 -3.312,0.72 h -24.264 V 0 h 24.264 c 2.016,0 3.96,-0.288 5.76,-0.936 1.8,-0.576 3.384,-1.512 4.752,-2.664 1.368,-1.152 2.448,-2.52 3.24,-4.176 0.792,-1.584 1.224,-3.384 1.224,-5.4 0,-3.168 -0.864,-5.904 -2.592,-8.208 z" stroke-width="0" stroke-linejoin="miter" stroke-miterlimit="2" fill="#631d16" stroke="#631d16" transform="matrix(1.8199999332427979, 0, 0, 1.8199999332427979, -619.9890899658203, 265.8295440673828)"/><path id="path658305" style="font-style:normal;font-weight:500;font-size:72px;line-height:1;font-family:'Raleway Medium Alt1';font-variant-ligatures:none;text-align:center;text-anchor:middle" d="m 568.74106,-44.136 -2.808,7.632 6.48,16.488 h -12.816 l -1.944,5.04 h 16.2 L 579.90106,0 h 6.912 z m -2.808,-6.984 h -5.472 L 539.50906,0 h 6.624 l 17.064,-43.632 z" stroke-width="0" stroke-linejoin="miter" stroke-miterlimit="2" fill="#631d16" stroke="#631d16" transform="matrix(1.8199999332427979, 0, 0, 1.8199999332427979, -619.9890289306641, 265.8295440673828)"/><path id="path658307" style="font-style:normal;font-weight:500;font-size:72px;line-height:1;font-family:'Raleway Medium Alt1';font-variant-ligatures:none;text-align:center;text-anchor:middle" d="m 634.52994,-35.496 c -1.008,-3.096 -2.592,-5.832 -4.608,-8.136 -2.088,-2.232 -4.68,-4.104 -7.776,-5.472 -3.096,-1.296 -6.696,-2.016 -10.728,-2.016 h -17.712 v 5.76 h 17.712 c 2.88,0 5.4,0.504 7.704,1.512 2.232,1.008 4.104,2.376 5.688,4.032 1.584,1.728 2.736,3.816 3.528,6.264 0.792,2.448 1.224,5.112 1.224,7.92 0,2.88 -0.432,5.472 -1.224,7.92 -0.792,2.448 -1.944,4.536 -3.456,6.264 -1.512,1.8 -3.384,3.24 -5.688,4.176 -2.304,1.008 -4.896,1.512 -7.776,1.512 h -11.232 v -32.76 h -6.48 V 0 h 17.712 c 3.744,0 7.128,-0.576 10.152,-1.8 3.024,-1.224 5.688,-2.952 7.848,-5.184 2.16,-2.232 3.816,-4.896 4.968,-8.064 1.152,-3.168 1.728,-6.696 1.728,-10.584 0,-3.456 -0.576,-6.768 -1.584,-9.864 z" stroke-width="0" stroke-linejoin="miter" stroke-miterlimit="2" fill="#631d16" stroke="#631d16" transform="matrix(1.8199999332427979, 0, 0, 1.8199999332427979, -619.9891204833984, 265.8295440673828)"/><path id="path658309" style="font-style:normal;font-weight:500;font-size:72px;line-height:1;font-family:'Raleway Medium Alt1';font-variant-ligatures:none;text-align:center;text-anchor:middle" d="m 667.31919,-44.136 -2.808,7.632 6.48,16.488 h -12.816 l -1.944,5.04 h 16.2 L 678.47919,0 h 6.912 z m -2.808,-6.984 h -5.472 L 638.08719,0 h 6.624 l 17.064,-43.632 z" stroke-width="0" stroke-linejoin="miter" stroke-miterlimit="2" fill="#631d16" stroke="#631d16" transform="matrix(1.8199999332427979, 0, 0, 1.8199999332427979, -619.9890899658203, 265.8295440673828)"/><image id="icon" x="437" y="0" width="150" height="150" transform="matrix(1, 0, 0, 1, -195.28321838378906, 4.791168212890625)" xlink:href="https://app.brandmark.io/nounpreview/32212.png"/>
</svg>